{
    "asset" : {
        "generator" : "Khronos glTF Blender I/O v1.8.19",
        "version" : "2.0"
    },
    "scene" : 0,
    "scenes" : [
        {
            "name" : "Scene",
            "nodes" : [
                5
            ]
        }
    ],
    "nodes" : [
        {
            "mesh" : 0,
            "name" : "Object_13"
        },
        {
            "children" : [
                0
            ],
            "name" : "/sketchfab-data/processing/8c9c6cc4aa274b7f8a90438ac5d9d239"
        },
        {
            "mesh" : 1,
            "name" : "Object_3"
        },
        {
            "children" : [
                2
            ],
            "name" : "/sketchfab-data/processing/8c9c6cc4aa274b7f8a90438ac5d9d239/pre"
        },
        {
            "children" : [
                1,
                3
            ],
            "name" : "zbrush_concat.osgb.cleaner.materialmerger.gles"
        },
        {
            "children" : [
                4
            ],
            "name" : "Sketchfab_model",
            "rotation" : [
                -0.5,
                0.5,
                0.5,
                0.5
            ],
            "scale" : [
                0.0009999871253967285,
                0.0009999871253967285,
                0.0009999871253967285
            ]
        }
    ],
    "materials" : [
        {
            "doubleSided" : true,
            "name" : "material_0",
            "pbrMetallicRoughness" : {
                "metallicFactor" : 0,
                "roughnessFactor" : 0.6000000238418579
            }
        },
        {
            "doubleSided" : true,
            "name" : "material_1",
            "pbrMetallicRoughness" : {
                "metallicFactor" : 0,
                "roughnessFactor" : 0.6000000238418579
            }
        }
    ],
    "meshes" : [
        {
            "name" : "Object_9.001",
            "primitives" : [
                {
                    "attributes" : {
                        "POSITION" : 0,
                        "NORMAL" : 1
                    },
                    "indices" : 2,
                    "material" : 0
                }
            ]
        },
        {
            "name" : "Object_0",
            "primitives" : [
                {
                    "attributes" : {
                        "POSITION" : 3,
                        "NORMAL" : 4
                    },
                    "indices" : 5,
                    "material" : 1
                }
            ]
        }
    ],
    "accessors" : [
        {
            "bufferView" : 0,
            "componentType" : 5126,
            "count" : 794711,
            "max" : [
                4082.3076171875,
                5322.87109375,
                6479.7353515625
            ],
            "min" : [
                -3956.8564453125,
                -5363.68896484375,
                -3723.918701171875
            ],
            "type" : "VEC3"
        },
        {
            "bufferView" : 1,
            "componentType" : 5126,
            "count" : 794711,
            "type" : "VEC3"
        },
        {
            "bufferView" : 2,
            "componentType" : 5125,
            "count" : 3440478,
            "type" : "SCALAR"
        },
        {
            "bufferView" : 3,
            "componentType" : 5126,
            "count" : 571860,
            "max" : [
                3390.07470703125,
                244.83804321289062,
                -587.0177612304688
            ],
            "min" : [
                -3290.6533203125,
                -4385.1171875,
                -6019.16015625
            ],
            "type" : "VEC3"
        },
        {
            "bufferView" : 4,
            "componentType" : 5126,
            "count" : 571860,
            "type" : "VEC3"
        },
        {
            "bufferView" : 5,
            "componentType" : 5125,
            "count" : 2509170,
            "type" : "SCALAR"
        }
    ],
    "bufferViews" : [
        {
            "buffer" : 0,
            "byteLength" : 9536532,
            "byteOffset" : 0
        },
        {
            "buffer" : 0,
            "byteLength" : 9536532,
            "byteOffset" : 9536532
        },
        {
            "buffer" : 0,
            "byteLength" : 13761912,
            "byteOffset" : 19073064
        },
        {
            "buffer" : 0,
            "byteLength" : 6862320,
            "byteOffset" : 32834976
        },
        {
            "buffer" : 0,
            "byteLength" : 6862320,
            "byteOffset" : 39697296
        },
        {
            "buffer" : 0,
            "byteLength" : 10036680,
            "byteOffset" : 46559616
        }
    ],
    "buffers" : [
        {
            "byteLength" : 56596296,
            "uri" : "scene.bin"
        }
    ]
}
